<svg width="200" height="52" viewBox="0 0 200 52" fill="none" xmlns="http://www.w3.org/2000/svg">
<g clip-path="url(#clip0_307_33)">
<path d="M67.9473 47.5037H63.2294C62.9558 47.5037 62.6622 47.4591 62.3485 47.3697C62.0348 47.2804 61.8779 47.0489 61.8779 46.6753C61.8779 46.5128 61.9061 46.3544 61.9624 46.2001C62.0267 46.0377 62.0871 45.8874 62.1434 45.7493C63.8729 41.9806 65.5863 38.2119 67.2836 34.4431C68.9809 30.6744 70.6541 26.8894 72.3032 23.0882C73.6626 19.953 75.01 16.8137 76.3454 13.6704C77.6807 10.5271 77.3844 11.3237 78.8002 8.22912C78.8565 8.10729 80.4414 4.72072 81 5C82 5.5 82.9437 8.10729 83 8.22912C84.4158 11.3237 83.8425 10.5271 85.1779 13.6704C86.5132 16.8137 87.8606 19.953 89.2201 23.0882C90.8691 26.8894 92.5423 30.6744 94.2396 34.4431C95.937 38.2119 97.6504 41.9806 99.3799 45.7493C99.4362 45.8874 99.4965 46.0377 99.5609 46.2001C99.6172 46.3544 99.6453 46.5128 99.6453 46.6753C99.6453 47.0489 99.4885 47.2804 99.1747 47.3697C98.861 47.4591 98.5674 47.5037 98.2939 47.5037H92.3332C91.8425 47.5037 91.4725 47.256 91.2231 46.7606C91.0622 46.4438 90.9134 46.1067 90.7766 45.7493C90.6399 45.392 90.5031 45.0549 90.3664 44.7381C89.932 43.7472 89.5137 42.736 89.1115 41.7044C88.7093 40.6729 88.2829 39.6617 87.8325 38.6708C87.7762 38.5083 87.6676 38.4271 87.5067 38.4271H72.9306C72.7697 38.4271 72.6611 38.5083 72.6048 38.6708C72.1302 39.6617 71.6838 40.6729 71.2655 41.7044C70.8391 42.736 70.4007 43.7553 69.9503 44.7625C69.8135 45.0793 69.6727 45.4163 69.5279 45.7737C69.3751 46.1311 69.2102 46.4682 69.0332 46.7849C68.7839 47.2641 68.4219 47.5037 67.9473 47.5037ZM75.368 32.2136H85.1779C84.3976 30.2317 83.6012 28.254 82.7888 26.2802C81.9843 24.3065 81.1799 22.3288 80.3755 20.3469C79.555 22.3288 78.7265 24.3065 77.8899 26.2802C77.0533 28.254 76.2126 30.2317 75.368 32.2136ZM104.351 7.05482C104.351 6.21823 104.753 5.79993 105.558 5.79993H110.601C111.406 5.79993 111.808 6.20604 111.808 7.01827C111.808 10.5677 111.824 14.1171 111.856 17.6666C111.881 21.216 111.893 24.7654 111.893 28.3149C111.893 30.2399 111.889 32.1811 111.881 34.1385C111.872 36.0879 111.868 38.0332 111.868 39.9744C111.868 40.2181 111.985 40.3399 112.218 40.3399H128.387C129.175 40.3399 129.582 40.7338 129.606 41.5217L129.69 46.2489C129.731 47.0855 129.328 47.5037 128.484 47.5037H105.534C104.729 47.5037 104.327 47.0855 104.327 46.2489C104.327 45.1605 104.339 44.0762 104.363 42.9959C104.395 41.9156 104.424 40.8313 104.448 39.7429C104.504 35.1782 104.532 30.6257 104.532 26.0853C104.532 22.8933 104.504 19.7174 104.448 16.5579C104.383 13.3902 104.351 10.2225 104.351 7.05482ZM135.542 7.05482C135.542 6.21823 135.949 5.79993 136.761 5.79993H141.793C142.597 5.79993 142.999 6.20604 142.999 7.01827C142.999 10.5677 143.015 14.1171 143.048 17.6666C143.072 21.216 143.084 24.7654 143.084 28.3149C143.084 30.2399 143.08 32.1811 143.072 34.1385C143.064 36.0879 143.06 38.0332 143.06 39.9744C143.06 40.2181 143.176 40.3399 143.41 40.3399H159.591C160.371 40.3399 160.773 40.7338 160.797 41.5217L160.882 46.2489C160.922 47.0855 160.52 47.5037 159.675 47.5037H136.725C135.921 47.5037 135.518 47.0855 135.518 46.2489C135.518 45.1605 135.534 44.0762 135.567 42.9959C135.591 41.9156 135.615 40.8313 135.639 39.7429C135.695 35.1782 135.723 30.6257 135.723 26.0853C135.723 22.8933 135.695 19.7174 135.639 16.5579C135.575 13.3902 135.542 10.2225 135.542 7.05482ZM173.817 25.1959C173.817 26.3818 173.809 27.5676 173.793 28.7535C173.784 29.9312 173.78 31.1049 173.78 32.2745C173.78 34.0614 174.207 35.5843 175.059 36.8433C175.92 38.1022 177.054 39.0647 178.462 39.7307C179.878 40.3886 181.41 40.7176 183.059 40.7176C185.634 40.7176 187.805 39.9947 189.575 38.5489C191.337 37.1032 192.218 35.0117 192.218 32.2745C192.218 31.1049 192.214 29.9312 192.206 28.7535C192.198 27.5676 192.194 26.3818 192.194 25.1959C192.194 23.1329 192.198 21.0698 192.206 19.0067C192.214 16.9437 192.23 14.8806 192.254 12.8176L192.278 8.44373L192.314 6.9939C192.354 6.59591 192.455 6.29945 192.616 6.10452C192.785 5.90146 193.086 5.79993 193.521 5.79993H198.504C199.309 5.79993 199.711 6.21823 199.711 7.05482C199.711 8.1432 199.695 9.22753 199.663 10.3078C199.63 11.3881 199.594 12.4643 199.554 13.5364C199.498 17.6381 199.47 21.7318 199.47 25.8173C199.47 26.9057 199.474 28.0062 199.482 29.119C199.498 30.2317 199.506 31.3445 199.506 32.4572C199.482 35.6249 198.717 38.3703 197.213 40.6932C195.717 43.0162 193.718 44.8072 191.216 46.0661C188.722 47.3251 185.955 47.9545 182.915 47.9545C179.89 47.9545 177.127 47.3251 174.625 46.0661C172.115 44.8072 170.116 43.0162 168.628 40.6932C167.132 38.3703 166.384 35.6249 166.384 32.4572C166.384 31.3445 166.392 30.2317 166.408 29.119C166.416 28.0062 166.42 26.9057 166.42 25.8173C166.42 21.7318 166.388 17.6381 166.324 13.5364C166.307 12.4643 166.279 11.3881 166.239 10.3078C166.199 9.22753 166.179 8.1432 166.179 7.05482C166.179 6.21823 166.581 5.79993 167.385 5.79993H172.489C172.916 5.79993 173.213 5.90146 173.382 6.10452C173.551 6.29945 173.656 6.59591 173.696 6.9939L173.72 8.44373L173.756 12.8176C173.772 14.8806 173.784 16.9437 173.793 19.0067C173.809 21.0698 173.817 23.1329 173.817 25.1959Z" fill="white"/>
<path d="M15.5046 52.0851C6.9576 52.0851 0.0292969 45.0896 0.0292969 36.4596V15.6255C0.0292969 6.99545 6.9576 -0.00012207 15.5046 -0.00012207H36.1384C44.6854 -0.00012207 51.6137 6.99545 51.6137 15.6255V36.4596C51.6137 45.0896 44.6854 52.0851 36.1384 52.0851H15.5046Z" fill="white"/>
<path d="M36.6341 21.3345C36.6341 15.3046 31.7937 10.4171 25.8217 10.4171C19.8497 10.4171 15.0093 15.3046 15.0093 21.3345C15.0093 23.3262 15.5458 25.1869 16.4687 26.795H16.4564L24.3606 40.6141C25.1642 42.0198 26.4792 42.0198 27.2834 40.6141L35.1876 26.795H35.1753C36.1308 25.1369 36.6341 23.2528 36.6341 21.3345ZM25.8217 25.5829C25.2844 25.5828 24.7524 25.4759 24.256 25.2683C23.7596 25.0606 23.3086 24.7563 22.9287 24.3727C22.1614 23.5979 21.7304 22.547 21.7305 21.4514C21.7306 20.3557 22.1617 19.3049 22.9291 18.5303C23.6964 17.7556 24.7372 17.3204 25.8223 17.3205C26.9073 17.3205 27.9479 17.7558 28.7151 18.5306C29.4823 19.3053 29.9133 20.3561 29.9132 21.4517C29.9131 22.5473 29.482 23.5979 28.7147 24.3726C27.9474 25.1472 26.9068 25.5829 25.8217 25.5829Z" fill="#0055B4"/>
</g>
<defs>
<clipPath id="clip0_307_33">
<rect width="200" height="52" fill="white"/>
</clipPath>
</defs>
</svg>
